<svg id="Сгруппировать_213" data-name="Сгруппировать 213" xmlns="http://www.w3.org/2000/svg" xmlns:xlink="http://www.w3.org/1999/xlink" width="232.104" height="175.346" viewBox="0 0 232.104 175.346">
  <defs>
    <clipPath id="clip-path">
      <rect id="Прямоугольник_320" data-name="Прямоугольник 320" width="232.104" height="175.346" fill="#bc9866"/>
    </clipPath>
  </defs>
  <path id="Контур_512" data-name="Контур 512" d="M133.562,146.778h-.295l-10.683-29.3h-7.505v1.592l15.311,40.162h5.987l15.14-40.162v-1.592h-7.529Z" transform="translate(-15.068 -15.383)" fill="#bc9866"/>
  <g id="Сгруппировать_212" data-name="Сгруппировать 212">
    <g id="Сгруппировать_211" data-name="Сгруппировать 211" clip-path="url(#clip-path)">
      <path id="Контур_513" data-name="Контур 513" d="M75.19,151.1a2.528,2.528,0,0,1-2.528,2.529H61.1V117.181H50.6v5.837h.979a2.264,2.264,0,0,1,2.264,2.264v34.184H81.147V148.734H75.19Z" transform="translate(-6.625 -15.344)" fill="#bc9866"/>
      <path id="Контур_514" data-name="Контур 514" d="M93.936,123.019h1.086a2.157,2.157,0,0,1,2.157,2.157v34.291h7.255V117.181h-10.5Z" transform="translate(-12.3 -15.344)" fill="#bc9866"/>
      <path id="Контур_515" data-name="Контур 515" d="M189.379,150.408a3.22,3.22,0,0,1-3.221,3.221H174.282V143.015h13.151v-5.837H174.282V122.96h13.033a2.122,2.122,0,0,1,2.122,2.122v1.3h5.839v-9.2H163.785v5.838H164.8a2.228,2.228,0,0,1,2.229,2.227v34.22h28.307V148.734h-5.957Z" transform="translate(-21.446 -15.344)" fill="#bc9866"/>
      <path id="Контур_516" data-name="Контур 516" d="M242.621,133.681c0-14.1-8.611-16.5-13.388-16.5H209.477v5.837h.839a2.345,2.345,0,0,1,2.345,2.345v34.22h7.255v-7.819h4.541l4.618-.062c.127,0,.242-.011.368-.014l4.006,7.777,8.552.067-5.964-9.646c7.357-4.569,6.584-16.206,6.584-16.206m-13.86,12.246h-8.845V123.018h8.728c2.6,0,6.663,1.784,6.663,10.793,0,11.62-5.188,12.116-6.546,12.116" transform="translate(-27.429 -15.344)" fill="#bc9866"/>
      <path id="Контур_517" data-name="Контур 517" d="M254.994,117.181v5.838h.769a2.476,2.476,0,0,1,2.475,2.476v33.972h7.254V117.181Z" transform="translate(-33.389 -15.344)" fill="#bc9866"/>
      <path id="Контур_518" data-name="Контур 518" d="M18.105,116.027C4.009,116.027,0,127.174,0,138.2c0,11.087,3.421,22.234,18.105,22.234,14.036,0,18.047-11.147,18.047-22.234,0-11.028-3.362-22.175-18.047-22.175m0,38.689c-7.136,0-10.556-5.013-10.556-16.514,0-11.441,3.421-16.455,10.556-16.455,7.078,0,10.5,5.014,10.5,16.455,0,11.5-3.421,16.514-10.5,16.514" transform="translate(0 -15.193)" fill="#bc9866"/>
      <path id="Контур_519" data-name="Контур 519" d="M28.973,192.9l-3.866-6.01H22.728V199.6h2.2v-9.076l3.976,5.954h.072l4.012-5.99V199.6h2.233V186.892H32.84Z" transform="translate(-2.976 -24.472)" fill="#bc9866"/>
      <path id="Контур_520" data-name="Контур 520" d="M48.132,186.787l-5.592,12.8h2.287l1.307-3.068h6.009l1.289,3.068h2.36l-5.592-12.8Zm-1.18,7.753,2.179-5.084,2.2,5.084Z" transform="translate(-5.57 -24.458)" fill="#bc9866"/>
      <rect id="Прямоугольник_318" data-name="Прямоугольник 318" width="2.233" height="12.707" transform="translate(55.077 162.421)" fill="#bc9866"/>
      <path id="Контур_521" data-name="Контур 521" d="M71.734,188.962h4.03V199.6h2.251V188.962h4.031v-2.07H71.734Z" transform="translate(-9.393 -24.472)" fill="#bc9866"/>
      <path id="Контур_522" data-name="Контур 522" d="M99.63,190.94V190.9a3.843,3.843,0,0,0-1.052-2.742,5.119,5.119,0,0,0-3.667-1.271H89.246V199.6h2.233v-4.43h2.8L97.4,199.6h2.632L96.6,194.788a3.812,3.812,0,0,0,3.031-3.848m-8.151,2.252v-4.266h3.25c1.651,0,2.632.744,2.632,2.106v.036c0,1.288-1.018,2.124-2.614,2.124Z" transform="translate(-11.686 -24.472)" fill="#bc9866"/>
      <path id="Контур_523" data-name="Контур 523" d="M109.514,194.19h6.372v-2h-6.372v-3.3H116.7v-2h-9.421V199.6h9.513v-2h-7.28Z" transform="translate(-14.047 -24.472)" fill="#bc9866"/>
      <path id="Контур_524" data-name="Контур 524" d="M139.237,194.412h3.249v2.378a5.184,5.184,0,0,1-3.068.961,4.243,4.243,0,0,1-4.32-4.537v-.036a4.3,4.3,0,0,1,4.12-4.485,4.978,4.978,0,0,1,3.558,1.362l1.417-1.689a6.859,6.859,0,0,0-4.883-1.724,6.474,6.474,0,0,0-6.554,6.572v.036a6.3,6.3,0,0,0,6.59,6.534,8.107,8.107,0,0,0,5.3-1.978v-5.338h-5.41Z" transform="translate(-17.383 -24.439)" fill="#bc9866"/>
      <path id="Контур_525" data-name="Контур 525" d="M154.946,186.892h-2.233V199.6h8.914v-2.034h-6.681Z" transform="translate(-19.996 -24.472)" fill="#bc9866"/>
      <path id="Контур_526" data-name="Контур 526" d="M172.912,186.787l-5.591,12.8h2.287l1.307-3.068h6.009l1.289,3.068h2.36l-5.592-12.8Zm-1.179,7.753,2.178-5.084,2.2,5.084Z" transform="translate(-21.909 -24.458)" fill="#bc9866"/>
      <path id="Контур_527" data-name="Контур 527" d="M193,197.734a4.3,4.3,0,0,1-4.193-4.52v-.036A4.265,4.265,0,0,1,193,188.693a5.05,5.05,0,0,1,3.557,1.58l1.435-1.652a6.625,6.625,0,0,0-4.975-1.979,6.431,6.431,0,0,0-6.554,6.572v.036a6.391,6.391,0,0,0,6.463,6.534,6.56,6.56,0,0,0,5.156-2.251l-1.435-1.452A4.98,4.98,0,0,1,193,197.734" transform="translate(-24.415 -24.439)" fill="#bc9866"/>
      <rect id="Прямоугольник_319" data-name="Прямоугольник 319" width="2.233" height="12.707" transform="translate(178.684 162.421)" fill="#bc9866"/>
      <path id="Контур_528" data-name="Контур 528" d="M217.242,194.19h6.372v-2h-6.372v-3.3h7.189v-2H215.01V199.6h9.512v-2h-7.279Z" transform="translate(-28.153 -24.472)" fill="#bc9866"/>
      <path id="Контур_529" data-name="Контур 529" d="M239.289,194.788a3.813,3.813,0,0,0,3.032-3.848V190.9a3.843,3.843,0,0,0-1.053-2.742,5.122,5.122,0,0,0-3.667-1.271h-5.664V199.6h2.233v-4.43h2.8l3.123,4.43h2.633Zm-5.12-1.6v-4.266h3.249c1.652,0,2.632.744,2.632,2.106v.036c0,1.288-1.017,2.124-2.613,2.124Z" transform="translate(-30.37 -24.472)" fill="#bc9866"/>
      <path id="Контур_530" data-name="Контур 530" d="M129.862,46.247a9.967,9.967,0,0,0-6.117-2.14c-4.871,0-8.9,4.371-8.967,9.224,0,0,3.3.7,12.4.918,0,0,.326-5.216,2.679-8" transform="translate(-15.029 -5.775)" fill="#bc9866"/>
      <path id="Контур_531" data-name="Контур 531" d="M126.714,40.692a10.337,10.337,0,0,1,5.889,2.558,9.454,9.454,0,0,1,8.6-2.427l0-.09a8.91,8.91,0,0,0-17.818-.138c.2-.016.607-.042,1.147-.042a16.853,16.853,0,0,1,2.176.139" transform="translate(-16.157 -4.167)" fill="#bc9866"/>
      <path id="Контур_532" data-name="Контур 532" d="M128.485,75.055a27.939,27.939,0,1,1,27.939-27.939,27.97,27.97,0,0,1-27.939,27.939m11.966-59.22a9.1,9.1,0,0,0,3.479-3.845A8.023,8.023,0,0,0,138.88.721,7.441,7.441,0,0,0,129.8,5.8c-.876,3.455,1.332,6.234,4.791,5.993-3.5-1.171-2.393-5.537.739-5.806a4.194,4.194,0,0,1,4.093,4.048,6.116,6.116,0,0,1-2.771,4.6,32.39,32.39,0,0,0-15.853-.124,6.29,6.29,0,0,1-3.249-4.924,4.194,4.194,0,0,1,4.092-4.049c3.134.269,4.236,4.636.74,5.806,3.459.241,5.668-2.538,4.792-5.993A7.441,7.441,0,0,0,118.09.273a8.023,8.023,0,0,0-5.049,11.267,9.055,9.055,0,0,0,3.97,4.114,33.523,33.523,0,1,0,23.44.18" transform="translate(-12.434 0)" fill="#bc9866"/>
      <path id="Контур_533" data-name="Контур 533" d="M107.992,19.7a2.989,2.989,0,0,0,1.339-4.9,1.961,1.961,0,0,1-3.4,1.868,2.775,2.775,0,0,1,.57-3.767c1.376-.966,4.11-.917,6.489,1.656-1.3-4.04-4.442-5.342-7.2-4.83a5.311,5.311,0,0,0-4.059,7.1,4.929,4.929,0,0,0,6.259,2.878" transform="translate(-13.276 -1.259)" fill="#bc9866"/>
      <path id="Контур_534" data-name="Контур 534" d="M158.82,13.412a2.775,2.775,0,0,1,.57,3.767A1.96,1.96,0,0,1,156,15.311a2.989,2.989,0,0,0,1.338,4.9,4.929,4.929,0,0,0,6.259-2.878,5.311,5.311,0,0,0-4.059-7.1c-2.761-.513-5.9.789-7.2,4.83,2.379-2.573,5.113-2.622,6.488-1.656" transform="translate(-19.946 -1.327)" fill="#bc9866"/>
      <path id="Контур_535" data-name="Контур 535" d="M113.511,56.451c.348,8.695,10.815,11.065,11.913,11.289l.01,0,.021,0,.063.012h0l.043.009.07.011.012.03c.435.092,2.691.633,2.691,1.985a1.838,1.838,0,0,1-.5,1.242,2.818,2.818,0,0,1-2.085.741c-1.508,0-2.141.391-2.408.719a.985.985,0,0,0-.23.65h15.482a.983.983,0,0,0-.229-.65c-.267-.328-.9-.719-2.407-.719a2.819,2.819,0,0,1-2.087-.741,1.839,1.839,0,0,1-.5-1.246c0-1.284,2.033-1.835,2.656-1.972h.007c7.66-1.219,12.076-5.363,12.138-11.38a133.721,133.721,0,0,1-34.65.016" transform="translate(-14.863 -7.39)" fill="#bc9866"/>
      <path id="Контур_536" data-name="Контур 536" d="M149.565,52.876a8.92,8.92,0,0,0-8.895-8.769h0s-8.692-.061-9.317,10.143A104.877,104.877,0,0,0,149.576,53s-.011-.121-.011-.124" transform="translate(-17.199 -5.775)" fill="#bc9866"/>
    </g>
  </g>
</svg>
